<svg xmlns="http://www.w3.org/2000/svg" xmlns:xlink="http://www.w3.org/1999/xlink" width="150" zoomAndPan="magnify" viewBox="0 0 112.5 30.000001" height="40" preserveAspectRatio="xMidYMid meet" version="1.0"><defs><g/><clipPath id="400b704cd6"><path d="M 1.574219 0 L 110.445312 0 L 110.445312 29.03125 L 1.574219 29.03125 Z M 1.574219 0 " clip-rule="nonzero"/></clipPath><clipPath id="96a240df9d"><path d="M 1.742188 0 L 110.375 0 L 110.375 29.03125 L 1.742188 29.03125 Z M 1.742188 0 " clip-rule="nonzero"/></clipPath><linearGradient x1="-0.0000000000346656" gradientTransform="matrix(108.629036, 0, 0, 61.103833, 1.744041, 0.00000193548)" y1="-0.0000000000346656" x2="0.737565" gradientUnits="userSpaceOnUse" y2="0.737565" id="b05fa0a32b"><stop stop-opacity="1" stop-color="rgb(0%, 76.899719%, 79.998779%)" offset="0"/><stop stop-opacity="1" stop-color="rgb(0%, 76.716614%, 79.882812%)" offset="0.0078125"/><stop stop-opacity="1" stop-color="rgb(0%, 76.351929%, 79.652405%)" offset="0.015625"/><stop stop-opacity="1" stop-color="rgb(0%, 75.98877%, 79.421997%)" offset="0.0234375"/><stop stop-opacity="1" stop-color="rgb(0%, 75.624084%, 79.191589%)" offset="0.03125"/><stop stop-opacity="1" stop-color="rgb(0%, 75.259399%, 78.961182%)" offset="0.0390625"/><stop stop-opacity="1" stop-color="rgb(0%, 74.89624%, 78.730774%)" offset="0.046875"/><stop stop-opacity="1" stop-color="rgb(0%, 74.531555%, 78.500366%)" offset="0.0546875"/><stop stop-opacity="1" stop-color="rgb(0%, 74.16687%, 78.269958%)" offset="0.0625"/><stop stop-opacity="1" stop-color="rgb(0%, 73.803711%, 78.039551%)" offset="0.0703125"/><stop stop-opacity="1" stop-color="rgb(0%, 73.439026%, 77.809143%)" offset="0.078125"/><stop stop-opacity="1" stop-color="rgb(0%, 73.074341%, 77.578735%)" offset="0.0859375"/><stop stop-opacity="1" stop-color="rgb(0%, 72.711182%, 77.348328%)" offset="0.09375"/><stop stop-opacity="1" stop-color="rgb(0%, 72.346497%, 77.11792%)" offset="0.101562"/><stop stop-opacity="1" stop-color="rgb(0%, 71.981812%, 76.887512%)" offset="0.109375"/><stop stop-opacity="1" stop-color="rgb(0%, 71.618652%, 76.657104%)" offset="0.117188"/><stop stop-opacity="1" stop-color="rgb(0%, 71.253967%, 76.426697%)" offset="0.125"/><stop stop-opacity="1" stop-color="rgb(0%, 70.889282%, 76.194763%)" offset="0.132812"/><stop stop-opacity="1" stop-color="rgb(0%, 70.526123%, 75.964355%)" offset="0.140625"/><stop stop-opacity="1" stop-color="rgb(0%, 70.161438%, 75.733948%)" offset="0.148438"/><stop stop-opacity="1" stop-color="rgb(0%, 69.796753%, 75.50354%)" offset="0.15625"/><stop stop-opacity="1" stop-color="rgb(0%, 69.433594%, 75.273132%)" offset="0.164062"/><stop stop-opacity="1" stop-color="rgb(0%, 69.068909%, 75.042725%)" offset="0.171875"/><stop stop-opacity="1" stop-color="rgb(0%, 68.704224%, 74.812317%)" offset="0.179688"/><stop stop-opacity="1" stop-color="rgb(0%, 68.341064%, 74.581909%)" offset="0.1875"/><stop stop-opacity="1" stop-color="rgb(0%, 67.976379%, 74.351501%)" offset="0.195312"/><stop stop-opacity="1" stop-color="rgb(0%, 67.611694%, 74.121094%)" offset="0.203125"/><stop stop-opacity="1" stop-color="rgb(0%, 67.248535%, 73.890686%)" offset="0.210937"/><stop stop-opacity="1" stop-color="rgb(0%, 66.88385%, 73.660278%)" offset="0.21875"/><stop stop-opacity="1" stop-color="rgb(0%, 66.519165%, 73.429871%)" offset="0.226562"/><stop stop-opacity="1" stop-color="rgb(0%, 66.156006%, 73.199463%)" offset="0.234375"/><stop stop-opacity="1" stop-color="rgb(0%, 65.791321%, 72.969055%)" offset="0.242187"/><stop stop-opacity="1" stop-color="rgb(0%, 65.426636%, 72.738647%)" offset="0.25"/><stop stop-opacity="1" stop-color="rgb(0%, 65.063477%, 72.50824%)" offset="0.257812"/><stop stop-opacity="1" stop-color="rgb(0%, 64.698792%, 72.277832%)" offset="0.265625"/><stop stop-opacity="1" stop-color="rgb(0%, 64.334106%, 72.045898%)" offset="0.273437"/><stop stop-opacity="1" stop-color="rgb(0%, 63.970947%, 71.815491%)" offset="0.28125"/><stop stop-opacity="1" stop-color="rgb(0%, 63.606262%, 71.585083%)" offset="0.289062"/><stop stop-opacity="1" stop-color="rgb(0%, 63.241577%, 71.354675%)" offset="0.296875"/><stop stop-opacity="1" stop-color="rgb(0%, 62.878418%, 71.124268%)" offset="0.304688"/><stop stop-opacity="1" stop-color="rgb(0%, 62.513733%, 70.89386%)" offset="0.3125"/><stop stop-opacity="1" stop-color="rgb(0%, 62.149048%, 70.663452%)" offset="0.320312"/><stop stop-opacity="1" stop-color="rgb(0%, 61.785889%, 70.433044%)" offset="0.322094"/><stop stop-opacity="1" stop-color="rgb(0%, 61.604309%, 70.318604%)" offset="0.328125"/><stop stop-opacity="1" stop-color="rgb(0%, 61.421204%, 70.202637%)" offset="0.335937"/><stop stop-opacity="1" stop-color="rgb(0%, 61.056519%, 69.972229%)" offset="0.34375"/><stop stop-opacity="1" stop-color="rgb(0%, 60.693359%, 69.741821%)" offset="0.351562"/><stop stop-opacity="1" stop-color="rgb(0%, 60.328674%, 69.511414%)" offset="0.359375"/><stop stop-opacity="1" stop-color="rgb(0%, 59.963989%, 69.281006%)" offset="0.367187"/><stop stop-opacity="1" stop-color="rgb(0%, 59.60083%, 69.050598%)" offset="0.375"/><stop stop-opacity="1" stop-color="rgb(0%, 59.236145%, 68.82019%)" offset="0.382812"/><stop stop-opacity="1" stop-color="rgb(0%, 58.87146%, 68.589783%)" offset="0.390625"/><stop stop-opacity="1" stop-color="rgb(0%, 58.508301%, 68.359375%)" offset="0.398437"/><stop stop-opacity="1" stop-color="rgb(0%, 58.143616%, 68.128967%)" offset="0.40625"/><stop stop-opacity="1" stop-color="rgb(0%, 57.778931%, 67.89856%)" offset="0.414062"/><stop stop-opacity="1" stop-color="rgb(0%, 57.415771%, 67.666626%)" offset="0.421875"/><stop stop-opacity="1" stop-color="rgb(0%, 57.051086%, 67.436218%)" offset="0.429687"/><stop stop-opacity="1" stop-color="rgb(0%, 56.686401%, 67.205811%)" offset="0.4375"/><stop stop-opacity="1" stop-color="rgb(0%, 56.323242%, 66.975403%)" offset="0.445312"/><stop stop-opacity="1" stop-color="rgb(0%, 55.958557%, 66.744995%)" offset="0.453125"/><stop stop-opacity="1" stop-color="rgb(0%, 55.593872%, 66.514587%)" offset="0.460937"/><stop stop-opacity="1" stop-color="rgb(0%, 55.230713%, 66.28418%)" offset="0.46875"/><stop stop-opacity="1" stop-color="rgb(0%, 54.866028%, 66.053772%)" offset="0.476562"/><stop stop-opacity="1" stop-color="rgb(0%, 54.502869%, 65.823364%)" offset="0.484375"/><stop stop-opacity="1" stop-color="rgb(0%, 54.138184%, 65.592957%)" offset="0.492187"/><stop stop-opacity="1" stop-color="rgb(0%, 53.773499%, 65.362549%)" offset="0.5"/><stop stop-opacity="1" stop-color="rgb(0%, 53.410339%, 65.132141%)" offset="0.507812"/><stop stop-opacity="1" stop-color="rgb(0%, 53.045654%, 64.901733%)" offset="0.515625"/><stop stop-opacity="1" stop-color="rgb(0%, 52.680969%, 64.671326%)" offset="0.523437"/><stop stop-opacity="1" stop-color="rgb(0%, 52.31781%, 64.440918%)" offset="0.53125"/><stop stop-opacity="1" stop-color="rgb(0%, 51.953125%, 64.21051%)" offset="0.539062"/><stop stop-opacity="1" stop-color="rgb(0%, 51.58844%, 63.980103%)" offset="0.546875"/><stop stop-opacity="1" stop-color="rgb(0%, 51.225281%, 63.749695%)" offset="0.554687"/><stop stop-opacity="1" stop-color="rgb(0%, 50.860596%, 63.519287%)" offset="0.5625"/><stop stop-opacity="1" stop-color="rgb(0%, 50.495911%, 63.287354%)" offset="0.570312"/><stop stop-opacity="1" stop-color="rgb(0%, 50.132751%, 63.056946%)" offset="0.578125"/><stop stop-opacity="1" stop-color="rgb(0%, 49.768066%, 62.826538%)" offset="0.585937"/><stop stop-opacity="1" stop-color="rgb(0%, 49.403381%, 62.59613%)" offset="0.59375"/><stop stop-opacity="1" stop-color="rgb(0%, 49.040222%, 62.365723%)" offset="0.601562"/><stop stop-opacity="1" stop-color="rgb(0%, 48.675537%, 62.135315%)" offset="0.609375"/><stop stop-opacity="1" stop-color="rgb(0%, 48.310852%, 61.904907%)" offset="0.617187"/><stop stop-opacity="1" stop-color="rgb(0%, 47.947693%, 61.6745%)" offset="0.625"/><stop stop-opacity="1" stop-color="rgb(0%, 47.583008%, 61.444092%)" offset="0.632812"/><stop stop-opacity="1" stop-color="rgb(0%, 47.218323%, 61.213684%)" offset="0.640625"/><stop stop-opacity="1" stop-color="rgb(0%, 46.855164%, 60.983276%)" offset="0.648437"/><stop stop-opacity="1" stop-color="rgb(0%, 46.490479%, 60.752869%)" offset="0.65625"/><stop stop-opacity="1" stop-color="rgb(0%, 46.125793%, 60.522461%)" offset="0.664062"/><stop stop-opacity="1" stop-color="rgb(0%, 45.762634%, 60.292053%)" offset="0.671875"/><stop stop-opacity="1" stop-color="rgb(0%, 45.397949%, 60.061646%)" offset="0.677906"/><stop stop-opacity="1" stop-color="rgb(0%, 45.21637%, 59.947205%)" offset="0.679687"/><stop stop-opacity="1" stop-color="rgb(0%, 45.033264%, 59.831238%)" offset="0.6875"/><stop stop-opacity="1" stop-color="rgb(0%, 44.670105%, 59.60083%)" offset="0.695312"/><stop stop-opacity="1" stop-color="rgb(0%, 44.30542%, 59.370422%)" offset="0.703125"/><stop stop-opacity="1" stop-color="rgb(0%, 43.940735%, 59.140015%)" offset="0.710937"/><stop stop-opacity="1" stop-color="rgb(0%, 43.577576%, 58.908081%)" offset="0.71875"/><stop stop-opacity="1" stop-color="rgb(0%, 43.212891%, 58.677673%)" offset="0.726563"/><stop stop-opacity="1" stop-color="rgb(0%, 42.848206%, 58.447266%)" offset="0.734375"/><stop stop-opacity="1" stop-color="rgb(0%, 42.485046%, 58.216858%)" offset="0.742188"/><stop stop-opacity="1" stop-color="rgb(0%, 42.120361%, 57.98645%)" offset="0.75"/><stop stop-opacity="1" stop-color="rgb(0%, 41.755676%, 57.756042%)" offset="0.757813"/><stop stop-opacity="1" stop-color="rgb(0%, 41.392517%, 57.525635%)" offset="0.765625"/><stop stop-opacity="1" stop-color="rgb(0%, 41.027832%, 57.295227%)" offset="0.773438"/><stop stop-opacity="1" stop-color="rgb(0%, 40.663147%, 57.064819%)" offset="0.78125"/><stop stop-opacity="1" stop-color="rgb(0%, 40.299988%, 56.834412%)" offset="0.789062"/><stop stop-opacity="1" stop-color="rgb(0%, 39.935303%, 56.604004%)" offset="0.796875"/><stop stop-opacity="1" stop-color="rgb(0%, 39.570618%, 56.373596%)" offset="0.804688"/><stop stop-opacity="1" stop-color="rgb(0%, 39.207458%, 56.143188%)" offset="0.8125"/><stop stop-opacity="1" stop-color="rgb(0%, 38.842773%, 55.912781%)" offset="0.820312"/><stop stop-opacity="1" stop-color="rgb(0%, 38.478088%, 55.682373%)" offset="0.828125"/><stop stop-opacity="1" stop-color="rgb(0%, 38.114929%, 55.451965%)" offset="0.835938"/><stop stop-opacity="1" stop-color="rgb(0%, 37.750244%, 55.221558%)" offset="0.84375"/><stop stop-opacity="1" stop-color="rgb(0%, 37.385559%, 54.99115%)" offset="0.851562"/><stop stop-opacity="1" stop-color="rgb(0%, 37.0224%, 54.759216%)" offset="0.859375"/><stop stop-opacity="1" stop-color="rgb(0%, 36.657715%, 54.528809%)" offset="0.867187"/><stop stop-opacity="1" stop-color="rgb(0%, 36.29303%, 54.298401%)" offset="0.875"/><stop stop-opacity="1" stop-color="rgb(0%, 35.929871%, 54.067993%)" offset="0.882812"/><stop stop-opacity="1" stop-color="rgb(0%, 35.565186%, 53.837585%)" offset="0.890625"/><stop stop-opacity="1" stop-color="rgb(0%, 35.2005%, 53.607178%)" offset="0.898437"/><stop stop-opacity="1" stop-color="rgb(0%, 34.837341%, 53.37677%)" offset="0.90625"/><stop stop-opacity="1" stop-color="rgb(0%, 34.472656%, 53.146362%)" offset="0.914063"/><stop stop-opacity="1" stop-color="rgb(0%, 34.107971%, 52.915955%)" offset="0.921875"/><stop stop-opacity="1" stop-color="rgb(0%, 33.744812%, 52.685547%)" offset="0.929688"/><stop stop-opacity="1" stop-color="rgb(0%, 33.380127%, 52.455139%)" offset="0.9375"/><stop stop-opacity="1" stop-color="rgb(0%, 33.015442%, 52.224731%)" offset="0.945313"/><stop stop-opacity="1" stop-color="rgb(0%, 32.652283%, 51.994324%)" offset="0.953125"/><stop stop-opacity="1" stop-color="rgb(0%, 32.287598%, 51.763916%)" offset="0.960938"/><stop stop-opacity="1" stop-color="rgb(0%, 31.922913%, 51.533508%)" offset="0.96875"/><stop stop-opacity="1" stop-color="rgb(0%, 31.559753%, 51.303101%)" offset="0.976562"/><stop stop-opacity="1" stop-color="rgb(0%, 31.195068%, 51.072693%)" offset="0.984375"/><stop stop-opacity="1" stop-color="rgb(0%, 30.830383%, 50.842285%)" offset="0.992188"/><stop stop-opacity="1" stop-color="rgb(0%, 30.467224%, 50.611877%)" offset="1"/></linearGradient></defs><g clip-path="url(#400b704cd6)"><path fill="#ffffff" d="M 1.574219 0 L 110.445312 0 L 110.445312 29.03125 L 1.574219 29.03125 Z M 1.574219 0 " fill-opacity="1" fill-rule="nonzero"/><path fill="#002366" d="M 1.574219 0 L 110.445312 0 L 110.445312 29.03125 L 1.574219 29.03125 Z M 1.574219 0 " fill-opacity="1" fill-rule="nonzero"/></g><g clip-path="url(#96a240df9d)"><path fill="url(#b05fa0a32b)" d="M 1.742188 0 L 1.742188 29.03125 L 110.375 29.03125 L 110.375 0 Z M 1.742188 0 " fill-rule="nonzero"/></g><g fill="#ffffff" fill-opacity="1"><g transform="translate(5.632638, 17.626509)"><g><path d="M 2.359375 -2.8125 L 2.359375 0 L 0.71875 0 L 0.71875 -8 L 3.828125 -8 C 4.429688 -8 4.960938 -7.890625 5.421875 -7.671875 C 5.878906 -7.453125 6.226562 -7.140625 6.46875 -6.734375 C 6.71875 -6.328125 6.84375 -5.863281 6.84375 -5.34375 C 6.84375 -4.5625 6.570312 -3.941406 6.03125 -3.484375 C 5.5 -3.035156 4.757812 -2.8125 3.8125 -2.8125 Z M 2.359375 -4.15625 L 3.828125 -4.15625 C 4.265625 -4.15625 4.597656 -4.253906 4.828125 -4.453125 C 5.054688 -4.660156 5.171875 -4.957031 5.171875 -5.34375 C 5.171875 -5.726562 5.054688 -6.039062 4.828125 -6.28125 C 4.597656 -6.53125 4.28125 -6.65625 3.875 -6.65625 L 2.359375 -6.65625 Z M 2.359375 -4.15625 "/></g></g></g><g fill="#ffffff" fill-opacity="1"><g transform="translate(14.569038, 17.626509)"><g><path d="M 5.234375 -1.640625 L 2.34375 -1.640625 L 1.796875 0 L 0.03125 0 L 3.015625 -8 L 4.546875 -8 L 7.53125 0 L 5.78125 0 Z M 2.78125 -2.984375 L 4.78125 -2.984375 L 3.78125 -5.984375 Z M 2.78125 -2.984375 "/></g></g></g><g fill="#ffffff" fill-opacity="1"><g transform="translate(23.818228, 17.626509)"><g><path d="M 6.734375 -6.65625 L 4.28125 -6.65625 L 4.28125 0 L 2.640625 0 L 2.640625 -6.65625 L 0.21875 -6.65625 L 0.21875 -8 L 6.734375 -8 Z M 6.734375 -6.65625 "/></g></g></g><g fill="#ffffff" fill-opacity="1"><g transform="translate(32.458296, 17.626509)"><g><path d="M 7.21875 0 L 5.578125 0 L 5.578125 -3.421875 L 2.359375 -3.421875 L 2.359375 0 L 0.71875 0 L 0.71875 -8 L 2.359375 -8 L 2.359375 -4.75 L 5.578125 -4.75 L 5.578125 -8 L 7.21875 -8 Z M 7.21875 0 "/></g></g></g><g fill="#ffffff" fill-opacity="1"><g transform="translate(42.086139, 17.626509)"><g><path d="M 2.46875 0 L 0.8125 0 L 0.8125 -8 L 2.46875 -8 Z M 2.46875 0 "/></g></g></g><g fill="#ffffff" fill-opacity="1"><g transform="translate(47.049494, 17.626509)"><g><path d="M 3.671875 -2.921875 L 2.359375 -2.921875 L 2.359375 0 L 0.71875 0 L 0.71875 -8 L 3.6875 -8 C 4.632812 -8 5.363281 -7.785156 5.875 -7.359375 C 6.382812 -6.941406 6.640625 -6.347656 6.640625 -5.578125 C 6.640625 -5.035156 6.519531 -4.582031 6.28125 -4.21875 C 6.050781 -3.851562 5.695312 -3.5625 5.21875 -3.34375 L 6.9375 -0.078125 L 6.9375 0 L 5.171875 0 Z M 2.359375 -4.265625 L 3.6875 -4.265625 C 4.101562 -4.265625 4.425781 -4.367188 4.65625 -4.578125 C 4.882812 -4.785156 5 -5.078125 5 -5.453125 C 5 -5.828125 4.890625 -6.117188 4.671875 -6.328125 C 4.453125 -6.546875 4.125 -6.65625 3.6875 -6.65625 L 2.359375 -6.65625 Z M 2.359375 -4.265625 "/></g></g></g><g fill="#ffffff" fill-opacity="1"><g transform="translate(55.909066, 17.626509)"><g><path d="M 6.734375 -6.65625 L 4.28125 -6.65625 L 4.28125 0 L 2.640625 0 L 2.640625 -6.65625 L 0.21875 -6.65625 L 0.21875 -8 L 6.734375 -8 Z M 6.734375 -6.65625 "/></g></g></g><g fill="#ffffff" fill-opacity="1"><g transform="translate(64.549132, 17.626509)"><g><path d="M 3.46875 -4.390625 L 5.140625 -8 L 6.9375 -8 L 4.3125 -2.90625 L 4.3125 0 L 2.640625 0 L 2.640625 -2.90625 L 0.015625 -8 L 1.8125 -8 Z M 3.46875 -4.390625 "/></g></g></g><g fill="#ffffff" fill-opacity="1"><g transform="translate(73.183705, 17.626509)"><g><path d="M 0.6875 -0.78125 C 0.6875 -1.03125 0.769531 -1.234375 0.9375 -1.390625 C 1.113281 -1.546875 1.332031 -1.625 1.59375 -1.625 C 1.851562 -1.625 2.066406 -1.546875 2.234375 -1.390625 C 2.398438 -1.234375 2.484375 -1.03125 2.484375 -0.78125 C 2.484375 -0.53125 2.398438 -0.328125 2.234375 -0.171875 C 2.066406 -0.015625 1.851562 0.0625 1.59375 0.0625 C 1.332031 0.0625 1.113281 -0.015625 0.9375 -0.171875 C 0.769531 -0.328125 0.6875 -0.53125 0.6875 -0.78125 Z M 0.6875 -0.78125 "/></g></g></g><g fill="#ffffff" fill-opacity="1"><g transform="translate(78.136082, 17.626509)"><g><path d="M 7 -2.671875 C 6.9375 -1.804688 6.617188 -1.125 6.046875 -0.625 C 5.472656 -0.132812 4.71875 0.109375 3.78125 0.109375 C 2.75 0.109375 1.9375 -0.234375 1.34375 -0.921875 C 0.757812 -1.617188 0.46875 -2.566406 0.46875 -3.765625 L 0.46875 -4.25 C 0.46875 -5.019531 0.601562 -5.695312 0.875 -6.28125 C 1.144531 -6.875 1.53125 -7.328125 2.03125 -7.640625 C 2.539062 -7.953125 3.128906 -8.109375 3.796875 -8.109375 C 4.722656 -8.109375 5.46875 -7.859375 6.03125 -7.359375 C 6.59375 -6.867188 6.914062 -6.175781 7 -5.28125 L 5.359375 -5.28125 C 5.316406 -5.800781 5.171875 -6.175781 4.921875 -6.40625 C 4.671875 -6.632812 4.296875 -6.75 3.796875 -6.75 C 3.242188 -6.75 2.832031 -6.550781 2.5625 -6.15625 C 2.289062 -5.769531 2.148438 -5.160156 2.140625 -4.328125 L 2.140625 -3.734375 C 2.140625 -2.867188 2.269531 -2.234375 2.53125 -1.828125 C 2.789062 -1.429688 3.207031 -1.234375 3.78125 -1.234375 C 4.28125 -1.234375 4.65625 -1.347656 4.90625 -1.578125 C 5.164062 -1.816406 5.3125 -2.179688 5.34375 -2.671875 Z M 7 -2.671875 "/></g></g></g><g fill="#ffffff" fill-opacity="1"><g transform="translate(87.17674, 17.626509)"><g><path d="M 7.28125 -3.8125 C 7.28125 -3.03125 7.140625 -2.34375 6.859375 -1.75 C 6.585938 -1.15625 6.191406 -0.695312 5.671875 -0.375 C 5.148438 -0.0507812 4.554688 0.109375 3.890625 0.109375 C 3.222656 0.109375 2.628906 -0.046875 2.109375 -0.359375 C 1.585938 -0.679688 1.1875 -1.140625 0.90625 -1.734375 C 0.625 -2.328125 0.476562 -3.007812 0.46875 -3.78125 L 0.46875 -4.171875 C 0.46875 -4.953125 0.609375 -5.640625 0.890625 -6.234375 C 1.179688 -6.835938 1.582031 -7.300781 2.09375 -7.625 C 2.613281 -7.945312 3.207031 -8.109375 3.875 -8.109375 C 4.539062 -8.109375 5.132812 -7.945312 5.65625 -7.625 C 6.175781 -7.300781 6.578125 -6.835938 6.859375 -6.234375 C 7.140625 -5.640625 7.28125 -4.953125 7.28125 -4.171875 Z M 5.609375 -4.1875 C 5.609375 -5.019531 5.457031 -5.65625 5.15625 -6.09375 C 4.863281 -6.53125 4.4375 -6.75 3.875 -6.75 C 3.320312 -6.75 2.894531 -6.53125 2.59375 -6.09375 C 2.289062 -5.664062 2.140625 -5.035156 2.140625 -4.203125 L 2.140625 -3.8125 C 2.140625 -3 2.289062 -2.363281 2.59375 -1.90625 C 2.894531 -1.457031 3.328125 -1.234375 3.890625 -1.234375 C 4.441406 -1.234375 4.863281 -1.453125 5.15625 -1.890625 C 5.457031 -2.328125 5.609375 -2.960938 5.609375 -3.796875 Z M 5.609375 -4.1875 "/></g></g></g><g fill="#ffffff" fill-opacity="1"><g transform="translate(96.623482, 17.626509)"><g><path d="M 2.875 -8 L 4.921875 -2.203125 L 6.96875 -8 L 9.125 -8 L 9.125 0 L 7.46875 0 L 7.46875 -2.1875 L 7.640625 -5.953125 L 5.484375 0 L 4.34375 0 L 2.203125 -5.953125 L 2.359375 -2.1875 L 2.359375 0 L 0.71875 0 L 0.71875 -8 Z M 2.875 -8 "/></g></g></g></svg>